<svg id="visual" viewBox="0 0 900 600" width="900" height="600" xmlns="http://www.w3.org/2000/svg" xmlns:xlink="http://www.w3.org/1999/xlink" version="1.1"><g stroke-width="1" stroke-linejoin="bevel"><path d="M438.1 316L423.1 380L449.9 320Z" fill="#bed5f6" stroke="#bed5f6"></path><path d="M449.9 320L424.1 259L438.1 316Z" fill="#d1dff9" stroke="#d1dff9"></path><path d="M438.1 316L319.3 327L423.1 380Z" fill="#aecaf5" stroke="#aecaf5"></path><path d="M423.1 380L505.9 418L449.9 320Z" fill="#dae4fa" stroke="#dae4fa"></path><path d="M489.9 185L455.9 181L424.1 259Z" fill="#a9c7f4" stroke="#a9c7f4"></path><path d="M505.9 418L540.7 401L449.9 320Z" fill="#a9c7f4" stroke="#a9c7f4"></path><path d="M424.1 259L319.3 327L438.1 316Z" fill="#d1dff9" stroke="#d1dff9"></path><path d="M523.9 414L540.7 401L505.9 418Z" fill="#bed5f6" stroke="#bed5f6"></path><path d="M306.3 428L419.1 484L423.1 380Z" fill="#c8daf8" stroke="#c8daf8"></path><path d="M423.1 380L419.1 484L505.9 418Z" fill="#b9d1f6" stroke="#b9d1f6"></path><path d="M505.9 418L560.7 472L523.9 414Z" fill="#cdddf8" stroke="#cdddf8"></path><path d="M319.3 327L299.3 376L423.1 380Z" fill="#b9d1f6" stroke="#b9d1f6"></path><path d="M299.3 376L306.3 428L423.1 380Z" fill="#d1dff9" stroke="#d1dff9"></path><path d="M424.1 259L305.3 251L319.3 327Z" fill="#bed5f6" stroke="#bed5f6"></path><path d="M319.3 327L255.5 363L299.3 376Z" fill="#d1dff9" stroke="#d1dff9"></path><path d="M489.9 185L424.1 259L449.9 320Z" fill="#a9c7f4" stroke="#a9c7f4"></path><path d="M424.1 259L326.3 179L305.3 251Z" fill="#dae4fa" stroke="#dae4fa"></path><path d="M540.7 401L593.7 289L449.9 320Z" fill="#c8daf8" stroke="#c8daf8"></path><path d="M265.5 183L286.5 259L305.3 251Z" fill="#b3cef5" stroke="#b3cef5"></path><path d="M305.3 251L286.5 259L319.3 327Z" fill="#a9c7f4" stroke="#a9c7f4"></path><path d="M593.7 289L489.9 185L449.9 320Z" fill="#d6e2f9" stroke="#d6e2f9"></path><path d="M523.9 414L560.7 472L540.7 401Z" fill="#c8daf8" stroke="#c8daf8"></path><path d="M540.7 401L676.5 357L593.7 289Z" fill="#d1dff9" stroke="#d1dff9"></path><path d="M468.9 545L560.7 472L505.9 418Z" fill="#bed5f6" stroke="#bed5f6"></path><path d="M248.5 295L255.5 363L319.3 327Z" fill="#bed5f6" stroke="#bed5f6"></path><path d="M299.3 376L270.5 446L306.3 428Z" fill="#b9d1f6" stroke="#b9d1f6"></path><path d="M255.5 363L270.5 446L299.3 376Z" fill="#bed5f6" stroke="#bed5f6"></path><path d="M306.3 428L349.3 545L419.1 484Z" fill="#aecaf5" stroke="#aecaf5"></path><path d="M286.5 259L248.5 295L319.3 327Z" fill="#a9c7f4" stroke="#a9c7f4"></path><path d="M448.1 562L468.9 545L419.1 484Z" fill="#c8daf8" stroke="#c8daf8"></path><path d="M419.1 484L468.9 545L505.9 418Z" fill="#dae4fa" stroke="#dae4fa"></path><path d="M419.1 141L326.3 179L424.1 259Z" fill="#c3d8f7" stroke="#c3d8f7"></path><path d="M286.5 259L265.5 183L248.5 295Z" fill="#bed5f6" stroke="#bed5f6"></path><path d="M593.7 289L567.7 191L489.9 185Z" fill="#b3cef5" stroke="#b3cef5"></path><path d="M516.9 101L419.1 141L455.9 181Z" fill="#b9d1f6" stroke="#b9d1f6"></path><path d="M419.1 95L419.1 141L516.9 101Z" fill="#b3cef5" stroke="#b3cef5"></path><path d="M455.9 181L419.1 141L424.1 259Z" fill="#a9c7f4" stroke="#a9c7f4"></path><path d="M270.5 446L349.3 545L306.3 428Z" fill="#c8daf8" stroke="#c8daf8"></path><path d="M349.3 545L448.1 562L419.1 484Z" fill="#dae4fa" stroke="#dae4fa"></path><path d="M648.5 529L645.5 443L560.7 472Z" fill="#c8daf8" stroke="#c8daf8"></path><path d="M593.7 289L615.7 218L567.7 191Z" fill="#c3d8f7" stroke="#c3d8f7"></path><path d="M636.5 241L615.7 218L593.7 289Z" fill="#c8daf8" stroke="#c8daf8"></path><path d="M666.5 286L636.5 241L593.7 289Z" fill="#b9d1f6" stroke="#b9d1f6"></path><path d="M590.7 558L560.7 472L468.9 545Z" fill="#d6e2f9" stroke="#d6e2f9"></path><path d="M560.7 472L645.5 443L540.7 401Z" fill="#d6e2f9" stroke="#d6e2f9"></path><path d="M282.3 107L265.5 183L326.3 179Z" fill="#c8daf8" stroke="#c8daf8"></path><path d="M326.3 179L265.5 183L305.3 251Z" fill="#bed5f6" stroke="#bed5f6"></path><path d="M676.5 357L666.5 286L593.7 289Z" fill="#d1dff9" stroke="#d1dff9"></path><path d="M645.5 443L676.5 357L540.7 401Z" fill="#bed5f6" stroke="#bed5f6"></path><path d="M382.1 600L450.9 600L448.1 562Z" fill="#cdddf8" stroke="#cdddf8"></path><path d="M448.1 562L450.9 600L468.9 545Z" fill="#dae4fa" stroke="#dae4fa"></path><path d="M516.9 101L455.9 181L489.9 185Z" fill="#b3cef5" stroke="#b3cef5"></path><path d="M419.1 141L419.1 95L326.3 179Z" fill="#b9d1f6" stroke="#b9d1f6"></path><path d="M516.9 101L489.9 185L567.7 191Z" fill="#b3cef5" stroke="#b3cef5"></path><path d="M248.5 295L179.6 374L255.5 363Z" fill="#d1dff9" stroke="#d1dff9"></path><path d="M255.5 363L179.6 374L270.5 446Z" fill="#c3d8f7" stroke="#c3d8f7"></path><path d="M226.5 564L322.3 600L349.3 545Z" fill="#d1dff9" stroke="#d1dff9"></path><path d="M141.6 302L179.6 374L248.5 295Z" fill="#dae4fa" stroke="#dae4fa"></path><path d="M349.3 545L382.1 600L448.1 562Z" fill="#dae4fa" stroke="#dae4fa"></path><path d="M322.3 600L382.1 600L349.3 545Z" fill="#dae4fa" stroke="#dae4fa"></path><path d="M661.5 194L567.7 191L615.7 218Z" fill="#d6e2f9" stroke="#d6e2f9"></path><path d="M587.7 58L516.9 101L567.7 191Z" fill="#b3cef5" stroke="#b3cef5"></path><path d="M572.7 600L590.7 558L468.9 545Z" fill="#c3d8f7" stroke="#c3d8f7"></path><path d="M648.5 529L694.4 428L645.5 443Z" fill="#a9c7f4" stroke="#a9c7f4"></path><path d="M645.5 443L694.4 428L676.5 357Z" fill="#aecaf5" stroke="#aecaf5"></path><path d="M676.5 357L714.4 265L666.5 286Z" fill="#c3d8f7" stroke="#c3d8f7"></path><path d="M226.5 564L349.3 545L270.5 446Z" fill="#aecaf5" stroke="#aecaf5"></path><path d="M714.4 265L661.5 194L636.5 241Z" fill="#aecaf5" stroke="#aecaf5"></path><path d="M636.5 241L661.5 194L615.7 218Z" fill="#c3d8f7" stroke="#c3d8f7"></path><path d="M714.4 265L636.5 241L666.5 286Z" fill="#bed5f6" stroke="#bed5f6"></path><path d="M590.7 558L648.5 529L560.7 472Z" fill="#dae4fa" stroke="#dae4fa"></path><path d="M419.1 95L282.3 107L326.3 179Z" fill="#d6e2f9" stroke="#d6e2f9"></path><path d="M155.6 187L141.6 302L248.5 295Z" fill="#d6e2f9" stroke="#d6e2f9"></path><path d="M450.9 600L572.7 600L468.9 545Z" fill="#cdddf8" stroke="#cdddf8"></path><path d="M590.7 558L617.5 600L648.5 529Z" fill="#b3cef5" stroke="#b3cef5"></path><path d="M756.4 359L714.4 265L676.5 357Z" fill="#b9d1f6" stroke="#b9d1f6"></path><path d="M155.6 187L248.5 295L265.5 183Z" fill="#b3cef5" stroke="#b3cef5"></path><path d="M134.6 457L226.5 564L270.5 446Z" fill="#b3cef5" stroke="#b3cef5"></path><path d="M134.6 457L270.5 446L179.6 374Z" fill="#c8daf8" stroke="#c8daf8"></path><path d="M572.7 600L617.5 600L590.7 558Z" fill="#b9d1f6" stroke="#b9d1f6"></path><path d="M789.2 414L756.4 359L694.4 428Z" fill="#aecaf5" stroke="#aecaf5"></path><path d="M282.3 107L186.6 151L265.5 183Z" fill="#b3cef5" stroke="#b3cef5"></path><path d="M91.8 407L134.6 457L179.6 374Z" fill="#c8daf8" stroke="#c8daf8"></path><path d="M186.6 151L155.6 187L265.5 183Z" fill="#d6e2f9" stroke="#d6e2f9"></path><path d="M789.2 414L694.4 428L748.4 528Z" fill="#bed5f6" stroke="#bed5f6"></path><path d="M694.4 428L756.4 359L676.5 357Z" fill="#d1dff9" stroke="#d1dff9"></path><path d="M639.5 82L587.7 58L567.7 191Z" fill="#c3d8f7" stroke="#c3d8f7"></path><path d="M516.9 101L439.1 0L419.1 95Z" fill="#bed5f6" stroke="#bed5f6"></path><path d="M289.3 0L253.5 53L282.3 107Z" fill="#dae4fa" stroke="#dae4fa"></path><path d="M639.5 82L567.7 191L661.5 194Z" fill="#d6e2f9" stroke="#d6e2f9"></path><path d="M161.6 600L213.5 600L226.5 564Z" fill="#c8daf8" stroke="#c8daf8"></path><path d="M226.5 564L213.5 600L322.3 600Z" fill="#bed5f6" stroke="#bed5f6"></path><path d="M769.4 158L639.5 82L661.5 194Z" fill="#bed5f6" stroke="#bed5f6"></path><path d="M745.4 195L661.5 194L714.4 265Z" fill="#aecaf5" stroke="#aecaf5"></path><path d="M282.3 107L253.5 53L186.6 151Z" fill="#aecaf5" stroke="#aecaf5"></path><path d="M186.6 151L133.6 119L155.6 187Z" fill="#aecaf5" stroke="#aecaf5"></path><path d="M289.3 0L282.3 107L419.1 95Z" fill="#b3cef5" stroke="#b3cef5"></path><path d="M141.6 302L91.8 407L179.6 374Z" fill="#b3cef5" stroke="#b3cef5"></path><path d="M122.6 560L161.6 600L226.5 564Z" fill="#dae4fa" stroke="#dae4fa"></path><path d="M41.8 342L91.8 407L141.6 302Z" fill="#aecaf5" stroke="#aecaf5"></path><path d="M786.2 261L745.4 195L714.4 265Z" fill="#aecaf5" stroke="#aecaf5"></path><path d="M514.9 0L439.1 0L516.9 101Z" fill="#d6e2f9" stroke="#d6e2f9"></path><path d="M155.6 187L84.8 287L141.6 302Z" fill="#d6e2f9" stroke="#d6e2f9"></path><path d="M559.7 0L514.9 0L587.7 58Z" fill="#d1dff9" stroke="#d1dff9"></path><path d="M587.7 58L514.9 0L516.9 101Z" fill="#c3d8f7" stroke="#c3d8f7"></path><path d="M748.4 528L694.4 428L648.5 529Z" fill="#bed5f6" stroke="#bed5f6"></path><path d="M756.4 359L786.2 261L714.4 265Z" fill="#dae4fa" stroke="#dae4fa"></path><path d="M695.4 600L748.4 528L648.5 529Z" fill="#d6e2f9" stroke="#d6e2f9"></path><path d="M617.5 600L695.4 600L648.5 529Z" fill="#dae4fa" stroke="#dae4fa"></path><path d="M812.2 255L786.2 261L756.4 359Z" fill="#a9c7f4" stroke="#a9c7f4"></path><path d="M122.6 560L226.5 564L134.6 457Z" fill="#b9d1f6" stroke="#b9d1f6"></path><path d="M682.5 0L559.7 0L587.7 58Z" fill="#b9d1f6" stroke="#b9d1f6"></path><path d="M77.8 520L122.6 560L134.6 457Z" fill="#d1dff9" stroke="#d1dff9"></path><path d="M253.5 53L133.6 119L186.6 151Z" fill="#a9c7f4" stroke="#a9c7f4"></path><path d="M439.1 0L289.3 0L419.1 95Z" fill="#aecaf5" stroke="#aecaf5"></path><path d="M121.8 59L133.6 119L253.5 53Z" fill="#c3d8f7" stroke="#c3d8f7"></path><path d="M155.6 187L62.8 231L84.8 287Z" fill="#aecaf5" stroke="#aecaf5"></path><path d="M289.3 0L278.5 0L253.5 53Z" fill="#bed5f6" stroke="#bed5f6"></path><path d="M812.2 255L769.4 158L745.4 195Z" fill="#c3d8f7" stroke="#c3d8f7"></path><path d="M745.4 195L769.4 158L661.5 194Z" fill="#d1dff9" stroke="#d1dff9"></path><path d="M639.5 82L682.5 0L587.7 58Z" fill="#b9d1f6" stroke="#b9d1f6"></path><path d="M40.8 149L62.8 231L155.6 187Z" fill="#c3d8f7" stroke="#c3d8f7"></path><path d="M84.8 287L41.8 342L141.6 302Z" fill="#bed5f6" stroke="#bed5f6"></path><path d="M900 323L812.2 255L756.4 359Z" fill="#d6e2f9" stroke="#d6e2f9"></path><path d="M786.2 261L812.2 255L745.4 195Z" fill="#c3d8f7" stroke="#c3d8f7"></path><path d="M0 285L41.8 342L84.8 287Z" fill="#d1dff9" stroke="#d1dff9"></path><path d="M91.8 407L77.8 520L134.6 457Z" fill="#d6e2f9" stroke="#d6e2f9"></path><path d="M0 452L77.8 520L91.8 407Z" fill="#bed5f6" stroke="#bed5f6"></path><path d="M122.6 560L107.8 600L161.6 600Z" fill="#c3d8f7" stroke="#c3d8f7"></path><path d="M77.8 520L107.8 600L122.6 560Z" fill="#bed5f6" stroke="#bed5f6"></path><path d="M769.4 158L717.4 45L639.5 82Z" fill="#d6e2f9" stroke="#d6e2f9"></path><path d="M837.2 600L812.2 532L748.4 528Z" fill="#dae4fa" stroke="#dae4fa"></path><path d="M748.4 528L812.2 532L789.2 414Z" fill="#d6e2f9" stroke="#d6e2f9"></path><path d="M789.2 414L900 323L756.4 359Z" fill="#cdddf8" stroke="#cdddf8"></path><path d="M140.6 0L121.8 59L253.5 53Z" fill="#cdddf8" stroke="#cdddf8"></path><path d="M133.6 119L40.8 149L155.6 187Z" fill="#b3cef5" stroke="#b3cef5"></path><path d="M717.4 45L682.5 0L639.5 82Z" fill="#a9c7f4" stroke="#a9c7f4"></path><path d="M41.8 342L0 359L91.8 407Z" fill="#dae4fa" stroke="#dae4fa"></path><path d="M77.8 520L0 600L107.8 600Z" fill="#dae4fa" stroke="#dae4fa"></path><path d="M0 285L0 359L41.8 342Z" fill="#c8daf8" stroke="#c8daf8"></path><path d="M0 285L84.8 287L62.8 231Z" fill="#d6e2f9" stroke="#d6e2f9"></path><path d="M0 244L0 285L62.8 231Z" fill="#bed5f6" stroke="#bed5f6"></path><path d="M121.8 59L40.8 149L133.6 119Z" fill="#d1dff9" stroke="#d1dff9"></path><path d="M0 359L0 452L91.8 407Z" fill="#a9c7f4" stroke="#a9c7f4"></path><path d="M40.8 149L0 244L62.8 231Z" fill="#a9c7f4" stroke="#a9c7f4"></path><path d="M812.2 532L859.2 486L789.2 414Z" fill="#bed5f6" stroke="#bed5f6"></path><path d="M278.5 0L140.6 0L253.5 53Z" fill="#b9d1f6" stroke="#b9d1f6"></path><path d="M0 75L0 126L40.8 149Z" fill="#c8daf8" stroke="#c8daf8"></path><path d="M833.2 55L728.4 0L717.4 45Z" fill="#d1dff9" stroke="#d1dff9"></path><path d="M717.4 45L728.4 0L682.5 0Z" fill="#c3d8f7" stroke="#c3d8f7"></path><path d="M833.2 55L717.4 45L769.4 158Z" fill="#dae4fa" stroke="#dae4fa"></path><path d="M900 400L900 323L789.2 414Z" fill="#b9d1f6" stroke="#b9d1f6"></path><path d="M812.2 255L848.2 122L769.4 158Z" fill="#c3d8f7" stroke="#c3d8f7"></path><path d="M900 416L900 400L789.2 414Z" fill="#d6e2f9" stroke="#d6e2f9"></path><path d="M859.2 486L900 416L789.2 414Z" fill="#aecaf5" stroke="#aecaf5"></path><path d="M900 233L848.2 122L812.2 255Z" fill="#aecaf5" stroke="#aecaf5"></path><path d="M0 452L0 539L77.8 520Z" fill="#a9c7f4" stroke="#a9c7f4"></path><path d="M812.2 532L900 500L859.2 486Z" fill="#bed5f6" stroke="#bed5f6"></path><path d="M859.2 486L900 500L900 416Z" fill="#d6e2f9" stroke="#d6e2f9"></path><path d="M695.4 600L837.2 600L748.4 528Z" fill="#d1dff9" stroke="#d1dff9"></path><path d="M140.6 0L109.8 0L121.8 59Z" fill="#b3cef5" stroke="#b3cef5"></path><path d="M900 323L900 233L812.2 255Z" fill="#bed5f6" stroke="#bed5f6"></path><path d="M0 75L40.8 149L121.8 59Z" fill="#a9c7f4" stroke="#a9c7f4"></path><path d="M40.8 149L0 126L0 244Z" fill="#c8daf8" stroke="#c8daf8"></path><path d="M837.2 600L900 500L812.2 532Z" fill="#bed5f6" stroke="#bed5f6"></path><path d="M900 92L833.2 55L848.2 122Z" fill="#cdddf8" stroke="#cdddf8"></path><path d="M848.2 122L833.2 55L769.4 158Z" fill="#a9c7f4" stroke="#a9c7f4"></path><path d="M0 539L0 600L77.8 520Z" fill="#d1dff9" stroke="#d1dff9"></path><path d="M109.8 0L0 75L121.8 59Z" fill="#b9d1f6" stroke="#b9d1f6"></path><path d="M900 233L900 113L848.2 122Z" fill="#d6e2f9" stroke="#d6e2f9"></path><path d="M837.2 600L900 600L900 500Z" fill="#d6e2f9" stroke="#d6e2f9"></path><path d="M900 113L900 92L848.2 122Z" fill="#d6e2f9" stroke="#d6e2f9"></path><path d="M900 0L842.2 0L833.2 55Z" fill="#aecaf5" stroke="#aecaf5"></path><path d="M833.2 55L842.2 0L728.4 0Z" fill="#bed5f6" stroke="#bed5f6"></path><path d="M109.8 0L0 0L0 75Z" fill="#cdddf8" stroke="#cdddf8"></path><path d="M900 92L900 0L833.2 55Z" fill="#d6e2f9" stroke="#d6e2f9"></path></g></svg>