<svg id="visual" viewBox="0 0 900 600" width="900" height="600" xmlns="http://www.w3.org/2000/svg" xmlns:xlink="http://www.w3.org/1999/xlink" version="1.1"><g stroke-width="1" stroke-linejoin="bevel"><path d="M417 307L483 282L415 217Z" fill="#83a9c5" stroke="#83a9c5"></path><path d="M483 282L497 197L415 217Z" fill="#b5d1e1" stroke="#b5d1e1"></path><path d="M415 217L296 284L417 307Z" fill="#a9c9dd" stroke="#a9c9dd"></path><path d="M380 119L314 187L415 217Z" fill="#97bcd6" stroke="#97bcd6"></path><path d="M415 217L314 187L296 284Z" fill="#a9c9dd" stroke="#a9c9dd"></path><path d="M383 404L486 403L417 307Z" fill="#a9c9dd" stroke="#a9c9dd"></path><path d="M417 307L486 403L483 282Z" fill="#83a9c5" stroke="#83a9c5"></path><path d="M624 206L532 124L497 197Z" fill="#97bcd6" stroke="#97bcd6"></path><path d="M314 375L383 404L417 307Z" fill="#8aafcb" stroke="#8aafcb"></path><path d="M497 197L380 119L415 217Z" fill="#a3c4da" stroke="#a3c4da"></path><path d="M607 303L497 197L483 282Z" fill="#a9c9dd" stroke="#a9c9dd"></path><path d="M497 197L532 124L380 119Z" fill="#8aafcb" stroke="#8aafcb"></path><path d="M296 284L314 375L417 307Z" fill="#90b6d0" stroke="#90b6d0"></path><path d="M486 403L607 303L483 282Z" fill="#a3c4da" stroke="#a3c4da"></path><path d="M607 303L624 206L497 197Z" fill="#769dba" stroke="#769dba"></path><path d="M624 206L572 92L532 124Z" fill="#83a9c5" stroke="#83a9c5"></path><path d="M510 0L399 0L380 119Z" fill="#9dc0d8" stroke="#9dc0d8"></path><path d="M488 486L584 426L486 403Z" fill="#90b6d0" stroke="#90b6d0"></path><path d="M486 403L584 426L607 303Z" fill="#7da3c0" stroke="#7da3c0"></path><path d="M376 512L488 486L383 404Z" fill="#9dc0d8" stroke="#9dc0d8"></path><path d="M383 404L488 486L486 403Z" fill="#7da3c0" stroke="#7da3c0"></path><path d="M178 213L186 287L296 284Z" fill="#769dba" stroke="#769dba"></path><path d="M296 284L203 406L314 375Z" fill="#9dc0d8" stroke="#9dc0d8"></path><path d="M178 213L296 284L314 187Z" fill="#b5d1e1" stroke="#b5d1e1"></path><path d="M320 0L267 72L380 119Z" fill="#a3c4da" stroke="#a3c4da"></path><path d="M380 119L267 72L314 187Z" fill="#97bcd6" stroke="#97bcd6"></path><path d="M270 511L383 404L314 375Z" fill="#a3c4da" stroke="#a3c4da"></path><path d="M270 511L376 512L383 404Z" fill="#a9c9dd" stroke="#a9c9dd"></path><path d="M228 86L178 213L314 187Z" fill="#afcddf" stroke="#afcddf"></path><path d="M510 0L380 119L532 124Z" fill="#afcddf" stroke="#afcddf"></path><path d="M572 92L510 0L532 124Z" fill="#a3c4da" stroke="#a3c4da"></path><path d="M685 394L702 323L607 303Z" fill="#9dc0d8" stroke="#9dc0d8"></path><path d="M607 303L702 323L624 206Z" fill="#90b6d0" stroke="#90b6d0"></path><path d="M624 206L732 75L572 92Z" fill="#a9c9dd" stroke="#a9c9dd"></path><path d="M186 0L228 86L267 72Z" fill="#9dc0d8" stroke="#9dc0d8"></path><path d="M267 72L228 86L314 187Z" fill="#afcddf" stroke="#afcddf"></path><path d="M186 287L203 406L296 284Z" fill="#8aafcb" stroke="#8aafcb"></path><path d="M702 323L712 203L624 206Z" fill="#b5d1e1" stroke="#b5d1e1"></path><path d="M572 92L592 0L510 0Z" fill="#90b6d0" stroke="#90b6d0"></path><path d="M713 470L685 394L584 426Z" fill="#b5d1e1" stroke="#b5d1e1"></path><path d="M584 426L685 394L607 303Z" fill="#7da3c0" stroke="#7da3c0"></path><path d="M399 0L320 0L380 119Z" fill="#97bcd6" stroke="#97bcd6"></path><path d="M203 406L270 511L314 375Z" fill="#83a9c5" stroke="#83a9c5"></path><path d="M689 0L592 0L572 92Z" fill="#7da3c0" stroke="#7da3c0"></path><path d="M488 486L592 527L584 426Z" fill="#83a9c5" stroke="#83a9c5"></path><path d="M484 600L592 527L488 486Z" fill="#b5d1e1" stroke="#b5d1e1"></path><path d="M400 600L488 486L376 512Z" fill="#a3c4da" stroke="#a3c4da"></path><path d="M228 86L132 130L178 213Z" fill="#a3c4da" stroke="#a3c4da"></path><path d="M178 213L100 288L186 287Z" fill="#83a9c5" stroke="#83a9c5"></path><path d="M186 287L114 379L203 406Z" fill="#8aafcb" stroke="#8aafcb"></path><path d="M186 0L132 130L228 86Z" fill="#90b6d0" stroke="#90b6d0"></path><path d="M105 191L100 288L178 213Z" fill="#9dc0d8" stroke="#9dc0d8"></path><path d="M203 406L180 502L270 511Z" fill="#90b6d0" stroke="#90b6d0"></path><path d="M132 130L105 191L178 213Z" fill="#a9c9dd" stroke="#a9c9dd"></path><path d="M304 600L400 600L376 512Z" fill="#83a9c5" stroke="#83a9c5"></path><path d="M400 600L484 600L488 486Z" fill="#9dc0d8" stroke="#9dc0d8"></path><path d="M100 288L114 379L186 287Z" fill="#9dc0d8" stroke="#9dc0d8"></path><path d="M721 600L713 470L592 527Z" fill="#8aafcb" stroke="#8aafcb"></path><path d="M592 527L713 470L584 426Z" fill="#b5d1e1" stroke="#b5d1e1"></path><path d="M685 394L774 411L702 323Z" fill="#769dba" stroke="#769dba"></path><path d="M702 323L807 306L712 203Z" fill="#b5d1e1" stroke="#b5d1e1"></path><path d="M712 203L732 75L624 206Z" fill="#83a9c5" stroke="#83a9c5"></path><path d="M821 128L732 75L712 203Z" fill="#a3c4da" stroke="#a3c4da"></path><path d="M114 379L180 502L203 406Z" fill="#9dc0d8" stroke="#9dc0d8"></path><path d="M270 511L304 600L376 512Z" fill="#b5d1e1" stroke="#b5d1e1"></path><path d="M732 75L689 0L572 92Z" fill="#90b6d0" stroke="#90b6d0"></path><path d="M320 0L186 0L267 72Z" fill="#9dc0d8" stroke="#9dc0d8"></path><path d="M0 94L0 228L105 191Z" fill="#83a9c5" stroke="#83a9c5"></path><path d="M209 600L304 600L270 511Z" fill="#a3c4da" stroke="#a3c4da"></path><path d="M713 470L774 411L685 394Z" fill="#a3c4da" stroke="#a3c4da"></path><path d="M774 411L807 306L702 323Z" fill="#83a9c5" stroke="#83a9c5"></path><path d="M713 470L832 473L774 411Z" fill="#afcddf" stroke="#afcddf"></path><path d="M484 600L611 600L592 527Z" fill="#7da3c0" stroke="#7da3c0"></path><path d="M807 306L815 180L712 203Z" fill="#a9c9dd" stroke="#a9c9dd"></path><path d="M732 75L785 0L689 0Z" fill="#b5d1e1" stroke="#b5d1e1"></path><path d="M900 170L821 128L815 180Z" fill="#97bcd6" stroke="#97bcd6"></path><path d="M815 180L821 128L712 203Z" fill="#83a9c5" stroke="#83a9c5"></path><path d="M117 600L209 600L180 502Z" fill="#769dba" stroke="#769dba"></path><path d="M180 502L209 600L270 511Z" fill="#afcddf" stroke="#afcddf"></path><path d="M0 505L103 525L114 379Z" fill="#a3c4da" stroke="#a3c4da"></path><path d="M114 379L103 525L180 502Z" fill="#97bcd6" stroke="#97bcd6"></path><path d="M186 0L94 0L132 130Z" fill="#a9c9dd" stroke="#a9c9dd"></path><path d="M0 228L0 279L100 288Z" fill="#a3c4da" stroke="#a3c4da"></path><path d="M100 288L0 390L114 379Z" fill="#7da3c0" stroke="#7da3c0"></path><path d="M821 128L785 0L732 75Z" fill="#b5d1e1" stroke="#b5d1e1"></path><path d="M0 228L100 288L105 191Z" fill="#90b6d0" stroke="#90b6d0"></path><path d="M0 94L105 191L132 130Z" fill="#9dc0d8" stroke="#9dc0d8"></path><path d="M611 600L721 600L592 527Z" fill="#8aafcb" stroke="#8aafcb"></path><path d="M774 411L900 404L807 306Z" fill="#8aafcb" stroke="#8aafcb"></path><path d="M798 600L832 473L713 470Z" fill="#90b6d0" stroke="#90b6d0"></path><path d="M807 306L900 283L815 180Z" fill="#97bcd6" stroke="#97bcd6"></path><path d="M0 279L0 390L100 288Z" fill="#83a9c5" stroke="#83a9c5"></path><path d="M900 404L900 283L807 306Z" fill="#afcddf" stroke="#afcddf"></path><path d="M821 128L900 87L785 0Z" fill="#97bcd6" stroke="#97bcd6"></path><path d="M103 525L117 600L180 502Z" fill="#90b6d0" stroke="#90b6d0"></path><path d="M0 600L117 600L103 525Z" fill="#afcddf" stroke="#afcddf"></path><path d="M94 0L0 94L132 130Z" fill="#83a9c5" stroke="#83a9c5"></path><path d="M900 283L900 170L815 180Z" fill="#8aafcb" stroke="#8aafcb"></path><path d="M900 480L900 404L832 473Z" fill="#afcddf" stroke="#afcddf"></path><path d="M832 473L900 404L774 411Z" fill="#9dc0d8" stroke="#9dc0d8"></path><path d="M900 170L900 87L821 128Z" fill="#b5d1e1" stroke="#b5d1e1"></path><path d="M721 600L798 600L713 470Z" fill="#a9c9dd" stroke="#a9c9dd"></path><path d="M0 390L0 505L114 379Z" fill="#90b6d0" stroke="#90b6d0"></path><path d="M94 0L0 0L0 94Z" fill="#7da3c0" stroke="#7da3c0"></path><path d="M900 600L900 480L832 473Z" fill="#a3c4da" stroke="#a3c4da"></path><path d="M900 87L900 0L785 0Z" fill="#8aafcb" stroke="#8aafcb"></path><path d="M0 505L0 600L103 525Z" fill="#8aafcb" stroke="#8aafcb"></path><path d="M798 600L900 600L832 473Z" fill="#90b6d0" stroke="#90b6d0"></path></g></svg>