<svg id="visual" viewBox="0 0 900 600" width="900" height="600" xmlns="http://www.w3.org/2000/svg" xmlns:xlink="http://www.w3.org/1999/xlink" version="1.1"><rect x="0" y="0" width="900" height="600" fill="#97bcd6"></rect><path d="M0 408L129 406L257 398L386 394L514 437L643 371L771 380L900 430L900 601L771 601L643 601L514 601L386 601L257 601L129 601L0 601Z" fill="#8fbcd3"></path><path d="M0 433L129 397L257 430L386 415L514 411L643 405L771 406L900 474L900 601L771 601L643 601L514 601L386 601L257 601L129 601L0 601Z" fill="#a6bbe1"></path><path d="M0 503L129 466L257 489L386 459L514 470L643 497L771 450L900 466L900 601L771 601L643 601L514 601L386 601L257 601L129 601L0 601Z" fill="#c7b8e3"></path><path d="M0 535L129 509L257 487L386 537L514 509L643 484L771 486L900 515L900 601L771 601L643 601L514 601L386 601L257 601L129 601L0 601Z" fill="#e8b4d7"></path><path d="M0 530L129 526L257 545L386 537L514 552L643 534L771 563L900 531L900 601L771 601L643 601L514 601L386 601L257 601L129 601L0 601Z" fill="#ffb4c0"></path></svg>